<?xml version="1.0" standalone="no"?>
<svg xmlns="http://www.w3.org/2000/svg" xmlns:xlink="http://www.w3.org/1999/xlink" width="296pt" height="310pt" viewBox="0.00 0.00 296.00 310.40">
<g id="graph0" class="graph" transform="translate(4,306.3999938964844) scale(1)" data-name="Connected_Components">

<polygon fill="white" stroke="none" points="-4,4 -4,-306.4 292,-306.4 292,4 -4,4" style=""/>
<!-- 1 -->
<g id="node1" class="node" pointer-events="visible" data-name="1">

<ellipse fill="none" stroke="black" cx="27" cy="-284.4" rx="27" ry="18" style=""/>
<text text-anchor="middle" x="27" y="-280.2" font-family="Times,serif" font-size="14.00" style="">1</text>
</g>
<!-- 3 -->
<g id="node2" class="node" pointer-events="visible" data-name="3">

<ellipse fill="none" stroke="black" cx="27" cy="-195.6" rx="27" ry="18" style=""/>
<text text-anchor="middle" x="27" y="-191.4" font-family="Times,serif" font-size="14.00" style="">3</text>
</g>
<!-- 1&#45;&#45;3 -->
<g id="edge1" class="edge" data-name="1--3">

<path fill="none" stroke="black" d="M27,-266.25C27,-251.13 27,-229.21 27,-214.01" style=""/>
<text text-anchor="middle" x="30.5" y="-235.8" font-family="Times,serif" font-size="14.00" style="">5</text>
</g>
<!-- 8 -->
<g id="node6" class="node" pointer-events="visible" data-name="8">

<ellipse fill="none" stroke="black" cx="58" cy="-18" rx="27" ry="18" style=""/>
<text text-anchor="middle" x="58" y="-13.8" font-family="Times,serif" font-size="14.00" style="">8</text>
</g>
<!-- 3&#45;&#45;8 -->
<g id="edge11" class="edge" data-name="3--8">

<path fill="none" stroke="black" d="M23.26,-177.46C19.31,-156.3 14.58,-119.36 22,-88.8 26.82,-68.92 38.35,-48.38 47.08,-34.77" style=""/>
<text text-anchor="middle" x="29" y="-102.6" font-family="Times,serif" font-size="14.00" style="">10</text>
</g>
<!-- 4 -->
<g id="node3" class="node" pointer-events="visible" data-name="4">

<ellipse fill="none" stroke="black" cx="117" cy="-195.6" rx="27" ry="18" style=""/>
<text text-anchor="middle" x="117" y="-191.4" font-family="Times,serif" font-size="14.00" style="">4</text>
</g>
<!-- 6 -->
<g id="node4" class="node" pointer-events="visible" data-name="6">

<ellipse fill="none" stroke="black" cx="117" cy="-106.8" rx="27" ry="18" style=""/>
<text text-anchor="middle" x="117" y="-102.6" font-family="Times,serif" font-size="14.00" style="">6</text>
</g>
<!-- 4&#45;&#45;6 -->
<g id="edge2" class="edge" data-name="4--6">

<path fill="none" stroke="black" d="M117,-177.45C117,-162.33 117,-140.41 117,-125.21" style=""/>
<text text-anchor="middle" x="124" y="-147" font-family="Times,serif" font-size="14.00" style="">12</text>
</g>
<!-- 5 -->
<g id="node5" class="node" pointer-events="visible" data-name="5">

<ellipse fill="none" stroke="black" cx="189" cy="-106.8" rx="27" ry="18" style=""/>
<text text-anchor="middle" x="189" y="-102.6" font-family="Times,serif" font-size="14.00" style="">5</text>
</g>
<!-- 4&#45;&#45;5 -->
<g id="edge3" class="edge" data-name="4--5">

<path fill="none" stroke="black" d="M129.39,-179.1C137.69,-168.76 148.92,-154.89 159,-142.8 164.53,-136.16 170.74,-128.89 176.06,-122.71" style=""/>
<text text-anchor="middle" x="166" y="-147" font-family="Times,serif" font-size="14.00" style="">19</text>
</g>
<!-- 4&#45;&#45;8 -->
<g id="edge4" class="edge" data-name="4--8">

<path fill="none" stroke="black" d="M102.83,-179.93C91,-166.68 74.84,-146.06 67,-124.8 56.1,-95.22 55.74,-57.95 56.71,-36.46" style=""/>
<text text-anchor="middle" x="74" y="-102.6" font-family="Times,serif" font-size="14.00" style="">10</text>
</g>
<!-- 6&#45;&#45;8 -->
<g id="edge6" class="edge" data-name="6--8">

<path fill="none" stroke="black" d="M106.18,-89.88C95.53,-74.22 79.37,-50.45 68.75,-34.82" style=""/>
<text text-anchor="middle" x="96.5" y="-58.2" font-family="Times,serif" font-size="14.00" style="">9</text>
</g>
<!-- 7 -->
<g id="node7" class="node" pointer-events="visible" data-name="7">

<ellipse fill="none" stroke="black" cx="189" cy="-18" rx="27" ry="18" style=""/>
<text text-anchor="middle" x="189" y="-13.8" font-family="Times,serif" font-size="14.00" style="">7</text>
</g>
<!-- 6&#45;&#45;7 -->
<g id="edge5" class="edge" data-name="6--7">

<path fill="none" stroke="black" d="M129.54,-90.68C142.68,-74.85 163.19,-50.12 176.36,-34.24" style=""/>
<text text-anchor="middle" x="166" y="-58.2" font-family="Times,serif" font-size="14.00" style="">22</text>
</g>
<!-- 5&#45;&#45;7 -->
<g id="edge12" class="edge" data-name="5--7">

<path fill="none" stroke="black" d="M189,-88.65C189,-73.53 189,-51.61 189,-36.41" style=""/>
<text text-anchor="middle" x="196" y="-58.2" font-family="Times,serif" font-size="14.00" style="">22</text>
</g>
<!-- 0 -->
<g id="node8" class="node" pointer-events="visible" data-name="0">

<ellipse fill="none" stroke="black" cx="261" cy="-106.8" rx="27" ry="18" style=""/>
<text text-anchor="middle" x="261" y="-102.6" font-family="Times,serif" font-size="14.00" style="">0</text>
</g>
<!-- 0&#45;&#45;7 -->
<g id="edge7" class="edge" data-name="0--7">

<path fill="none" stroke="black" d="M248.46,-90.68C235.32,-74.85 214.81,-50.12 201.64,-34.24" style=""/>
<text text-anchor="middle" x="238" y="-58.2" font-family="Times,serif" font-size="14.00" style="">15</text>
</g>
<!-- 2 -->
<g id="node9" class="node" pointer-events="visible" data-name="2">

<ellipse fill="none" stroke="black" cx="117" cy="-284.4" rx="27" ry="18" style=""/>
<text text-anchor="middle" x="117" y="-280.2" font-family="Times,serif" font-size="14.00" style="">2</text>
</g>
<!-- 2&#45;&#45;3 -->
<g id="edge10" class="edge" data-name="2--3">

<path fill="none" stroke="black" d="M102.14,-269.07C85.46,-252.98 58.57,-227.05 41.88,-210.95" style=""/>
<text text-anchor="middle" x="84.5" y="-235.8" font-family="Times,serif" font-size="14.00" style="">5</text>
</g>
<!-- 2&#45;&#45;4 -->
<g id="edge8" class="edge" data-name="2--4">

<path fill="none" stroke="black" d="M117,-266.25C117,-251.13 117,-229.21 117,-214.01" style=""/>
<text text-anchor="middle" x="124" y="-235.8" font-family="Times,serif" font-size="14.00" style="">18</text>
</g>
<!-- 2&#45;&#45;5 -->
<g id="edge9" class="edge" data-name="2--5">

<path fill="none" stroke="black" d="M126.16,-267.03C133.8,-253.06 144.75,-232.31 153,-213.6 163.33,-190.18 164.78,-183.84 173,-159.6 176.93,-148.01 181,-134.84 184.04,-124.67" style=""/>
<text text-anchor="middle" x="173" y="-191.4" font-family="Times,serif" font-size="14.00" style="">30</text>
</g>
</g>
</svg>